<svg xmlns="http://www.w3.org/2000/svg" aria-hidden="true" style="position:absolute;width:0;height:0;overflow:hidden"><defs><symbol id="icon-close" viewBox="0 0 32 32"><path d="m8.532 25.333-1.867-1.867 7.467-7.467-7.467-7.467 1.867-1.867 7.467 7.467 7.467-7.467 1.867 1.867-7.467 7.467 7.467 7.467-1.867 1.867-7.467-7.467z"/></symbol><symbol id="icon-features" viewBox="0 0 32 32"><path fill="#f08080" d="M1.501.875c-1.349 2.899.031 5.357 2.555 6.162 2.319.74 3.759 2.078 3.096 5.172-.499 2.329.465 4.522 3.129 5.059 1.482.299 3.152 2.048 3.437 4.773a8.577 8.577 0 0 0 17.104 1.185 8.54 8.54 0 0 0-1.889-6.285l-.002-.002c-1.626-2.875-9.062-6.263-11.703-6.006-2.704.263-4.508-.548-5.24-2.814-.973-3.012-2.87-3.359-5.266-2.932-2.134.381-4.358-1.382-5.221-4.313zm6.557 5.119c1.901-.002 3.44 1.822 3.098 3.83-.867-1.215-2.113-2.617-4.746-3.361a3.3 3.3 0 0 1 1.648-.469m1.078 3.617c.132-.01.283.043.475.197.256.206.522.594.672 1.102s.148 1.019.045 1.395-.285.576-.449.641c-.164.064-.346.039-.602-.166s-.522-.594-.672-1.102c-.149-.507-.148-1.019-.045-1.395s.285-.578.449-.643a.4.4 0 0 1 .127-.029m7.297 2.602c2.062-.015 4.138.82 4.576 2.721q.234.931.521 1.658c.034.348.118.704.252 1.055.263.687.677 1.243 1.191 1.594s1.191.489 1.779.203c.589-.286.915-.878 1.035-1.508a3.6 3.6 0 0 0-.041-1.459c5.341 4.069 4.373 8.945 1.227 11.545-3.307 2.732-8.619 3.101-10.961-2.531q.105.09.238.135c.416.241.898.379 1.41.379a2.837 2.837 0 0 0 2.83-2.828 2.84 2.84 0 0 0-2.467-2.805c-1.668-1.128-3.259-1.816-2.98-3.738.319.363.701.641 1.115.812.604.25 1.306.267 1.894-.072s.927-.954 1.012-1.602c.085-.647-.062-1.348-.432-1.986s-.906-1.114-1.51-1.363q-.302-.124-.623-.166l-.068-.043zM8.14 13.377c.741 1.351 6.599.581 5.772 6.262-1.402-5.029-5.776-2.251-5.772-6.262m8.066.023q.218-.004.473.102c.34.14.697.44.945.869s.331.886.283 1.248-.203.609-.435.742-.526.144-.865.004c-.34-.14-.697-.44-.945-.869s-.331-.888-.283-1.25c.047-.362.203-.607.435-.74a.8.8 0 0 1 .393-.105zm7.086 1.723c.119-.004.258.041.435.162.271.185.571.553.76 1.047s.227 1.002.154 1.385c-.073.382-.24.599-.398.676s-.341.067-.611-.117c-.271-.185-.571-.551-.76-1.045s-.227-1.004-.154-1.387.24-.599.398-.676a.5.5 0 0 1 .125-.041q.025-.004.051-.004m-5.631 6.391c.924 0 1.662.737 1.662 1.662s-.738 1.66-1.662 1.66-1.662-.736-1.662-1.66.738-1.662 1.662-1.662" style="fill:var(--color1, #f08080)"/></symbol><symbol id="icon-mechanics1" viewBox="0 0 32 32"><path fill="none" stroke="#3c3434" stroke-linecap="round" stroke-linejoin="round" stroke-miterlimit="10" stroke-width=".97" d="M10.497 10.497a7.783 7.783 0 1 1 11.004 11.007 7.783 7.783 0 0 1-11.003-11.007z" style="stroke:var(--color2, #3c3434)"/><path fill="#f08080" d="M24.434 8.385a.842.842 0 1 0 0-1.684.842.842 0 0 0 0 1.684" style="fill:var(--color1, #f08080)"/><path fill="#f08080" stroke="#f08080" stroke-width=".485" d="M7.119 7.143a.6.6 0 0 1 .848.848.6.6 0 0 1-.802.041l-.045-.041-.041-.046a.6.6 0 0 1 .041-.802zm.024 16.891a.6.6 0 0 1 .848.848.6.6 0 0 1-.848-.848zm16.891-.024a.6.6 0 0 1 .803-.041l.045.041a.6.6 0 1 1-.848 0z" style="fill:var(--color1, #f08080);stroke:var(--color1, #f08080)"/><path fill="none" stroke="#f08080" stroke-linecap="round" stroke-linejoin="round" stroke-miterlimit="10" stroke-width=".97" d="m20.472 6.771 6.5-1.742-1.742 6.5zM6.771 11.529l-1.742-6.5 6.5 1.742zm4.758 13.7-6.5 1.742 1.742-6.5zm13.701-4.758 1.741 6.5-6.499-1.741 4.758-4.758z" style="stroke:var(--color1, #f08080)"/><path fill="none" stroke="#3c3434" stroke-linecap="round" stroke-linejoin="round" stroke-miterlimit="10" stroke-width=".97" d="M14.211 6.312 16 3.214l1.788 3.098zM6.312 17.789 3.214 16l3.098-1.789zm11.476 7.899L16 28.786l-1.789-3.098zm7.9-11.477L28.786 16l-3.098 1.789zM15.983 1.937V.485M1.937 16.017H.485m15.532 14.046v1.452m14.046-15.532h1.452" style="stroke:var(--color2, #3c3434)"/></symbol><symbol id="icon-mechanics2" viewBox="0 0 32 32"><path fill="none" stroke="#f08080" stroke-linecap="round" stroke-linejoin="round" stroke-miterlimit="10" stroke-width=".955" d="m.716 15.998 3.821-3.683-.924-5.223 5.262-.733 2.322-4.772 4.689 2.499 4.688-2.499 2.322 4.772 5.261.733-.924 5.223 3.821 3.683-3.821 3.683.924 5.223-5.262.733-2.322 4.772-4.688-2.499-4.688 2.499-2.322-4.772-5.262-.733.924-5.223z" style="stroke:var(--color1, #f08080)"/><path fill="none" stroke="#3c3434" stroke-linecap="round" stroke-linejoin="round" stroke-miterlimit="10" stroke-width=".955" d="M21.787 23.757c4.295-3.245 5.142-9.352 1.894-13.641S14.317 4.98 10.022 8.225 4.88 17.577 8.128 21.866s9.364 5.136 13.659 1.891" style="stroke:var(--color2, #3c3434)"/><path fill="#f08080" d="M14.829 1.054a1.055 1.055 0 1 1 2.11.002 1.055 1.055 0 0 1-2.11-.002m14.981 9.313a1.055 1.055 0 1 1 .65 2.005 1.055 1.055 0 0 1-.65-2.004zm.622 9.385a1.053 1.053 0 1 1-.674 1.997 1.053 1.053 0 1 1 .673-1.997zm-4.857 7.708a1.054 1.054 0 1 1-1.707 1.239c-.343-.47-.238-1.13.233-1.471s1.131-.238 1.474.233zm-8.718 3.495a1.054 1.054 0 1 1-2.11-.018 1.054 1.054 0 0 1 2.111.018zm-9.22-2.451a1.057 1.057 0 0 1-1.48.193 1.053 1.053 0 1 1 1.287-1.671c.462.354.549 1.017.193 1.477zm-5.574-6.722a1.055 1.055 0 1 1-.673-2 1.055 1.055 0 0 1 .673 2m-.713-9.416a1.053 1.053 0 0 1-.674-1.33 1.056 1.056 0 0 1 2.005.657 1.055 1.055 0 0 1-1.331.673m4.792-7.743c-.347-.468-.248-1.128.22-1.474s1.129-.247 1.476.221a1.054 1.054 0 0 1-1.696 1.254zM23.805 3.26a1.054 1.054 0 1 1 1.712 1.237 1.054 1.054 0 0 1-1.712-1.238z" style="fill:var(--color1, #f08080)"/></symbol><symbol id="icon-mechanics3" viewBox="0 0 32 32"><path fill="none" stroke="#3c3434" stroke-linecap="round" stroke-linejoin="round" stroke-miterlimit="10" stroke-width=".97" d="M.485 15.999h1.259m14.257 6.106a6.105 6.105 0 1 0 0-12.21 6.105 6.105 0 1 0 0 12.21" style="stroke:var(--color2, #3c3434)"/><path fill="none" stroke="#f08080" stroke-linecap="round" stroke-linejoin="round" stroke-miterlimit="10" stroke-width=".97" d="M4.573 16C4.573 9.689 9.689 4.573 16 4.573S27.427 9.689 27.427 16 22.311 27.427 16 27.427 4.573 22.311 4.573 16" style="stroke:var(--color1, #f08080)"/><path fill="none" stroke="#f08080" stroke-linecap="round" stroke-linejoin="round" stroke-miterlimit="10" stroke-width=".97" d="M14.465 4.573a1.535 1.535 0 1 1 3.07 0 1.535 1.535 0 0 1-3.07 0" style="stroke:var(--color1, #f08080)"/><path fill="none" stroke="#3c3434" stroke-linecap="round" stroke-linejoin="round" stroke-miterlimit="10" stroke-width=".97" d="M27.427 14.465a1.535 1.535 0 1 1 0 3.07 1.535 1.535 0 0 1 0-3.07m-9.893 12.962a1.534 1.534 0 1 1-3.069-.001 1.534 1.534 0 0 1 3.069.001M4.572 17.535a1.535 1.535 0 1 1 0-3.07 1.535 1.535 0 0 1 0 3.07M15.235 4.573a.764.764 0 1 1 1.529-.001.764.764 0 0 1-1.529.001" style="stroke:var(--color2, #3c3434)"/><path fill="none" stroke="#f08080" stroke-linecap="round" stroke-linejoin="round" stroke-miterlimit="10" stroke-width=".97" d="M23.538 7.379a.765.765 0 1 1 1.083 1.082.765.765 0 0 1-1.083-1.082" style="stroke:var(--color1, #f08080)"/><path fill="none" stroke="#3c3434" stroke-linecap="round" stroke-linejoin="round" stroke-miterlimit="10" stroke-width=".97" d="M24.62 23.54a.763.763 0 1 1-1.082 1.081.763.763 0 1 1 1.082-1.081M8.46 24.621a.765.765 0 1 1-1.082-1.08.765.765 0 0 1 1.082 1.08" style="stroke:var(--color2, #3c3434)"/><path fill="none" stroke="#f08080" stroke-linecap="round" stroke-linejoin="round" stroke-miterlimit="10" stroke-width=".97" d="M7.379 8.461A.763.763 0 1 1 8.461 7.38a.763.763 0 1 1-1.082 1.081" style="stroke:var(--color1, #f08080)"/><path fill="none" stroke="#3c3434" stroke-linecap="round" stroke-linejoin="round" stroke-miterlimit="10" stroke-width=".97" d="M9.15 14.466h2.309m8.395 4.595h2.252m-.835-1.527h1.364" style="stroke:var(--color2, #3c3434)"/><path fill="none" stroke="#f08080" stroke-linecap="round" stroke-linejoin="round" stroke-miterlimit="10" stroke-width=".97" d="M16.001.485v1.259M26.972 5.03l-.89.89" style="stroke:var(--color1, #f08080)"/><path fill="none" stroke="#3c3434" stroke-linecap="round" stroke-linejoin="round" stroke-miterlimit="10" stroke-width=".97" d="M31.515 16.002h-1.259m-3.287 10.97-.89-.89m-10.081 5.433v-1.259M5.027 26.97l.89-.89" style="stroke:var(--color2, #3c3434)"/><path fill="none" stroke="#f08080" stroke-linecap="round" stroke-linejoin="round" stroke-miterlimit="10" stroke-width=".97" d="m5.029 5.028.891.89" style="stroke:var(--color1, #f08080)"/></symbol><symbol id="icon-mechanics4" viewBox="0 0 32 32"><path fill="none" stroke="#3c3434" stroke-linecap="round" stroke-linejoin="round" stroke-miterlimit="10" stroke-width=".97" d="M2.698 15.998c0-7.337 5.948-13.285 13.285-13.285s13.285 5.948 13.285 13.285-5.948 13.285-13.285 13.285S2.698 23.335 2.698 15.998" style="stroke:var(--color2, #3c3434)"/><path fill="none" stroke="#3c3434" stroke-linecap="round" stroke-linejoin="round" stroke-miterlimit="10" stroke-width=".97" d="M7.519 16a8.482 8.482 0 1 1 16.962.002A8.482 8.482 0 0 1 7.52 16" style="stroke:var(--color2, #3c3434)"/><path fill="none" stroke="#f08080" stroke-linecap="round" stroke-linejoin="round" stroke-miterlimit="10" stroke-width=".97" d="M19.122 5.892 16 .485 12.885 5.88a10.6 10.6 0 0 1 6.236.012zm6.233 5.168 1.616-6.031-6.017 1.612a10.6 10.6 0 0 1 4.402 4.418zm.754 8.062L31.516 16l-5.395-3.115a10.6 10.6 0 0 1-.012 6.237m-5.169 6.233 6.03 1.616-1.612-6.017a10.6 10.6 0 0 1-1.864 2.517 10.6 10.6 0 0 1-2.554 1.884m-8.061.754 3.122 5.407 3.115-5.395a10.6 10.6 0 0 1-6.236-.012zM6.645 20.94l-1.616 6.031 6.017-1.612a10.6 10.6 0 0 1-2.517-1.863 10.6 10.6 0 0 1-1.885-2.555zm-.753-8.062L.485 16l5.395 3.115a10.6 10.6 0 0 1-.462-3.098c0-1.093.166-2.147.474-3.139m5.168-6.233L5.029 5.029l1.612 6.017a10.6 10.6 0 0 1 4.418-4.402z" style="stroke:var(--color1, #f08080)"/></symbol><symbol id="icon-menu" viewBox="0 0 32 32"><path d="M4 24v-2.667h24V24zm0-6.667v-2.667h24v2.667zm0-6.666V8h24v2.667z"/></symbol><symbol id="icon-minus" viewBox="0 0 24 2" fill="none">
  <path d="M24 1C24 1.26522 23.8946 1.51957 23.7071 1.70711C23.5196 1.89464 23.2652 2 23 2H1C0.734784 2 0.48043 1.89464 0.292893 1.70711C0.105357 1.51957 0 1.26522 0 1C0 0.734784 0.105357 0.48043 0.292893 0.292893C0.48043 0.105357 0.734784 0 1 0H23C23.2652 0 23.5196 0.105357 23.7071 0.292893C23.8946 0.48043 24 0.734784 24 1Z" fill="#F08080" />
</symbol><symbol id="icon-plus" viewBox="0 0 24 24" fill="none">
  <path d="M24 12C24 12.2652 23.8946 12.5196 23.7071 12.7071C23.5196 12.8946 23.2652 13 23 13H13V23C13 23.2652 12.8946 23.5196 12.7071 23.7071C12.5196 23.8946 12.2652 24 12 24C11.7348 24 11.4804 23.8946 11.2929 23.7071C11.1054 23.5196 11 23.2652 11 23V13H1C0.734784 13 0.48043 12.8946 0.292893 12.7071C0.105357 12.5196 0 12.2652 0 12C0 11.7348 0.105357 11.4804 0.292893 11.2929C0.48043 11.1054 0.734784 11 1 11H11V1C11 0.734784 11.1054 0.48043 11.2929 0.292893C11.4804 0.105357 11.7348 0 12 0C12.2652 0 12.5196 0.105357 12.7071 0.292893C12.8946 0.48043 13 0.734784 13 1V11H23C23.2652 11 23.5196 11.1054 23.7071 11.2929C23.8946 11.4804 24 11.7348 24 12Z" fill="#1A2B3C" />
</symbol></defs></svg>